<svg xmlns="http://www.w3.org/2000/svg" width="104" height="72" viewBox="0 0 104 72" fill="none">
  <g clip-path="url(#clip0_5688_4485)">
    <path d="M25.0073 0.708826C24.9605 0.350294 25.2749 0.0333311 25.6256 0.0255369C26.0491 -0.0264243 26.4128 0.251568 26.7038 0.521766C27.3091 1.07515 27.8158 1.72727 28.3094 2.38198C30.923 1.4181 33.8537 1.45187 36.4855 2.33261C37.1038 1.51422 37.743 0.67765 38.6029 0.0982825C39.0082 -0.127749 39.7461 0.0437233 39.7487 0.594512C39.7824 1.77923 39.7409 2.96654 39.7798 4.15125C40.2423 4.63969 40.7957 5.03719 41.2425 5.54381C42.5026 6.92858 43.4301 8.62771 43.9211 10.436C44.6096 13.1068 44.42 16.0218 43.2612 18.5367C42.2896 20.5814 40.7775 22.3896 38.8549 23.6029C34.9085 26.1646 29.3772 26.0971 25.5788 23.2808C24.3292 22.465 23.3471 21.3114 22.4897 20.1085C21.1699 18.1392 20.5594 15.7724 20.536 13.4159H28.6134C28.3847 14.8812 28.8602 16.3959 29.8267 17.5079C29.3408 17.6066 28.8264 17.7443 28.4861 18.1262C28.2003 18.4172 28.1249 18.8303 28.0288 19.2122C29.8397 19.2408 31.6531 19.2356 33.464 19.246C34.5967 19.2616 35.7424 18.9654 36.6803 18.3185C38.1768 17.3104 39.0965 15.4424 38.8289 13.6394C38.6159 11.2569 36.4205 9.29281 34.0537 9.21747C33.1314 9.1759 32.2065 9.18889 31.2842 9.1707C31.7025 8.71604 32.1545 8.28996 32.539 7.80672C32.9963 7.23515 33.1418 6.47392 33.134 5.75945C33.0353 5.12812 32.6663 4.57993 32.2585 4.10449C30.936 5.40871 29.6344 6.74931 28.2678 8.00677C27.1299 7.9704 25.8984 8.37829 25.3164 9.42791C25.1554 8.91869 25.041 8.39388 25.0358 7.85609C24.9969 5.47886 24.9995 3.09904 25.0073 0.721817V0.708826ZM21.2063 14.0551C21.2998 14.9046 21.4245 15.7516 21.6012 16.5882C21.7207 17.0948 21.8844 17.6248 22.2663 17.9937C22.5235 18.2587 22.973 18.1158 23.1159 17.8015C23.6823 16.835 24.2356 15.8607 24.7838 14.8838C24.9917 14.5435 24.7033 14.0109 24.285 14.0602C23.2588 14.0421 22.2325 14.0602 21.2037 14.0551H21.2063Z" fill="#D47E5C"/>
    <path d="M40.6557 33.6652H41.4429C45.0672 41.6698 48.7019 49.6718 52.3314 57.6739H48.9461C47.9147 55.2551 46.8884 52.8337 45.8596 50.4149H36.2988C35.2673 52.8337 34.2411 55.2551 33.2097 57.6739H30.0868C33.6072 49.6692 37.1327 41.6672 40.6531 33.6626L40.6557 33.6652ZM40.9181 38.2534C39.6191 41.5997 38.32 44.9434 37.021 48.2897H44.9165C43.5863 44.9434 42.2535 41.5997 40.9207 38.2534H40.9181Z" fill="white"/>
    <path d="M0.479431 1.51416H13.4048V3.98751C10.0377 3.98751 6.6732 3.98751 3.30612 3.98751V10.9997C6.6732 10.9997 10.0377 10.9997 13.4048 10.9997V13.4211C10.0377 13.4237 6.6732 13.4211 3.30872 13.4211V24.8811H0.482029V1.51416H0.479431Z" fill="white"/>
    <path d="M53.0534 1.51447H56.6699C58.4236 4.45028 60.1799 7.38868 61.9336 10.3245C63.6691 7.38868 65.3994 4.44768 67.1375 1.51188H70.4214C68.1247 5.20891 65.8255 8.90075 63.5314 12.5978C66.1424 16.6923 68.7561 20.7869 71.3671 24.8814C70.1642 24.871 68.9639 24.9022 67.7636 24.8658C65.7735 21.4935 63.7444 18.142 61.7387 14.7802C59.8317 18.1472 57.9248 21.5143 56.0178 24.8788C54.911 24.8762 53.8042 24.884 52.7001 24.8788C55.2124 20.7843 57.7273 16.6923 60.2422 12.5952C57.8468 8.90075 55.4514 5.20631 53.056 1.50928L53.0534 1.51447Z" fill="white"/>
    <path d="M0.0536499 34.3071C0.996745 34.3071 1.93984 34.3071 2.88294 34.3071V43.5458H16.198V34.3071C17.1411 34.3071 18.0842 34.3071 19.0247 34.3071V57.6741H16.198V46.0192H2.88553V57.6741H0.058846V34.3071H0.056248H0.0536499Z" fill="white"/>
    <path d="M62.911 34.3071C65.9455 34.3409 68.9801 34.3721 72.0146 34.4085C73.5215 34.4214 75.0024 35.0969 75.9818 36.2453C77.629 38.0353 78.12 40.7607 77.2575 43.0262C76.7405 44.385 75.6389 45.4632 74.3451 46.0919C73.7943 46.3439 73.2253 46.6531 72.6018 46.6141C71.6821 46.6089 70.7597 46.6141 69.84 46.6115C72.8538 50.2982 75.8701 53.9848 78.8839 57.6741C77.5771 57.6741 76.2728 57.6793 74.9712 57.6767C71.9574 53.7094 68.9489 49.7422 65.9352 45.775V57.6767H62.911V34.3071ZM65.9352 36.7311V44.5825C67.7148 44.5825 69.4945 44.5825 71.2742 44.5825C72.0146 44.5876 72.781 44.3928 73.35 43.8992C74.8595 42.556 74.9218 40.1086 73.8956 38.4614C73.1993 37.3105 71.8224 36.7935 70.5337 36.7311C68.9983 36.7285 67.468 36.7311 65.9352 36.7311Z" fill="white"/>
    <path d="M89.8915 34.3097H102.944V36.8324H92.7831V43.7433C96.171 43.7459 99.5589 43.7433 102.947 43.7433V46.1673H92.7857V55.1539C96.1736 55.1565 99.5615 55.1539 102.949 55.1539V57.6741H89.8941V34.3071V34.3123L89.8915 34.3097Z" fill="white"/>
    <path d="M87.2739 2.98172C88.3754 2.06721 89.7992 1.545 91.2281 1.51382C92.7558 1.47485 94.3094 2.14255 95.2213 3.38962C96.2943 4.77958 96.5359 6.60861 96.4216 8.31294C95.6188 8.27657 94.816 8.235 94.0158 8.19603C94.0834 7.05028 94.0574 5.78503 93.3377 4.82894C92.67 3.93261 91.4074 3.70658 90.3785 4.01056C89.2354 4.29634 88.1027 5.13032 87.9078 6.3592C87.8117 7.32828 88.3209 8.25318 88.9652 8.94167C92.0881 12.0931 95.2213 15.2342 98.378 18.3544C99.612 17.0866 100.864 15.8395 102.117 14.5873C102.673 15.1406 103.226 15.6966 103.782 16.2526C102.537 17.5205 101.288 18.7883 100.046 20.0562C101.327 21.3344 102.605 22.6127 103.883 23.8961C103.327 24.4651 102.753 25.0159 102.166 25.5537C100.908 24.2754 99.6562 22.992 98.3806 21.7293C97.596 22.4568 96.9438 23.3297 96.0501 23.9351C94.7329 24.8678 93.1429 25.4575 91.5165 25.4523C89.1263 25.5173 86.7802 24.3611 85.2526 22.5477C84.0601 21.1629 83.5041 19.2742 83.6963 17.4607C83.8574 15.7979 84.6498 14.2521 85.6865 12.9687C86.3126 12.2984 86.9829 11.667 87.6272 11.0097C86.4113 9.90036 85.541 8.32593 85.515 6.65278C85.4682 5.23684 86.2087 3.88845 87.2687 2.98692L87.2739 2.98172ZM86.3568 16.4605C85.8839 17.7283 85.9489 19.2196 86.6633 20.3887C87.596 21.9008 89.2744 22.9686 91.0644 23.0465C92.2024 23.0933 93.3689 22.8361 94.3354 22.2229C95.2603 21.6696 95.8994 20.7758 96.6814 20.0536C94.2211 17.5984 91.7685 15.138 89.3263 12.6673C88.1728 13.7871 86.9153 14.9042 86.3594 16.4605H86.3568Z" fill="white"/>
    <path d="M21.0866 66.1431C21.1385 66.1431 21.2399 66.1483 21.2918 66.1483C22.0011 68.0604 22.713 69.9726 23.4222 71.8848C23.1339 71.8848 22.8481 71.8848 22.5623 71.8848C22.4324 71.4899 22.3025 71.0924 22.1726 70.6975H20.0707C19.9304 71.0924 19.7902 71.4899 19.6525 71.8874H18.7821C19.5511 69.9726 20.3124 68.0552 21.084 66.1431H21.0866ZM20.276 70.1363H21.9517C21.6841 69.2997 21.4191 68.4605 21.1515 67.624C20.8606 68.4605 20.567 69.2971 20.276 70.1363Z" fill="white"/>
    <path d="M36.1074 66.1799C36.7361 66.0968 37.4064 66.1591 37.9806 66.4501C37.8949 66.6709 37.8065 66.8918 37.7234 67.1126C37.2609 66.8502 36.6972 66.793 36.1801 66.8918C35.4839 67.0658 35.089 67.7751 34.9669 68.4376C34.824 69.2638 34.8967 70.2251 35.5098 70.8538C36.11 71.4903 37.2479 71.4124 37.7909 70.7395C37.9286 70.9369 38.0689 71.1344 38.2118 71.3318C37.5259 71.9917 36.4529 72.158 35.5774 71.8281C34.7902 71.5189 34.3095 70.7135 34.1666 69.9107C34.0238 69.0897 34.0705 68.2038 34.4602 67.4529C34.7876 66.8164 35.3825 66.289 36.1074 66.1773V66.1799Z" fill="white"/>
    <path d="M48.3047 66.1512C48.3567 66.1512 48.4606 66.146 48.5126 66.146C49.227 68.0582 49.9363 69.9755 50.6482 71.8903H49.7882C49.6583 71.4928 49.5284 71.0979 49.3985 70.7004H47.2967C47.1564 71.0953 47.0161 71.4928 46.8784 71.8903C46.5874 71.8903 46.299 71.8903 46.0106 71.8903C46.7744 69.9781 47.5409 68.066 48.3073 66.1538L48.3047 66.1512ZM48.3749 67.6243C48.0839 68.4609 47.7903 69.3 47.4993 70.1366H49.1751C48.9075 69.3 48.6399 68.4609 48.3749 67.6243Z" fill="white"/>
    <path d="M66.5607 66.2604C66.5762 66.0994 66.8283 66.0864 66.8516 66.25C67.5505 68.1284 68.2468 70.0068 68.9457 71.8878H68.0857C67.9532 71.4903 67.8259 71.0954 67.6934 70.6979H65.5916C65.4487 71.0928 65.3136 71.4903 65.1733 71.8878C64.8823 71.8878 64.5939 71.8878 64.3055 71.8878C65.0564 70.012 65.8046 68.1362 66.5581 66.2604H66.5607ZM66.675 67.6218C66.384 68.4584 66.0904 69.2976 65.7994 70.1367H67.4752C67.2076 69.2976 66.94 68.461 66.675 67.6218Z" fill="white"/>
    <path d="M93.4503 66.2006C94.1128 66.0837 94.8247 66.1435 95.43 66.4527C95.3417 66.6709 95.2586 66.8891 95.1728 67.11C94.6974 66.8476 94.1232 66.7878 93.5984 66.8995C92.9281 67.0866 92.5462 67.7725 92.4241 68.4168C92.2734 69.2404 92.3435 70.1991 92.9437 70.8356C93.536 71.4903 94.6974 71.4253 95.2404 70.7369C95.3807 70.9343 95.521 71.1318 95.6665 71.3292C94.7519 72.2152 93.0606 72.2515 92.2266 71.2409C91.5771 70.4641 91.4602 69.3781 91.6005 68.409C91.7486 67.4165 92.4267 66.4189 93.4555 66.1981L93.4503 66.2006Z" fill="white"/>
    <path d="M0.000793457 66.2192C1.16732 66.2192 2.33385 66.2192 3.49778 66.2192V66.9207H0.777613V68.4925H2.76513V69.1602C2.10262 69.1602 1.44012 69.1602 0.777613 69.1602V71.8882H0.000793457C0.000793457 69.9968 0.000793457 68.108 0.000793457 66.2192Z" fill="white"/>
    <path d="M6.92468 66.2192H7.6989V71.8908H6.92468C6.92468 69.9994 6.92468 68.1106 6.92468 66.2218V66.2192Z" fill="white"/>
    <path d="M11.6532 66.216H11.9676C12.9133 67.5228 13.859 68.8244 14.8072 70.1287V66.216H15.5451V71.9551H15.3139C14.3396 70.5807 13.3679 69.2037 12.3936 67.8294V71.8849C12.1468 71.8849 11.9026 71.8849 11.6558 71.8849V66.2134L11.6532 66.216Z" fill="white"/>
    <path d="M26.6649 66.2163C26.7688 66.2163 26.8754 66.2189 26.9819 66.2215C27.925 67.5283 28.8733 68.8274 29.819 70.1316V66.2189H30.5568V71.958H30.3256C29.3513 70.5836 28.3796 69.2067 27.4028 67.8323V71.8879C27.156 71.8879 26.9117 71.8879 26.6649 71.8879V66.2163Z" fill="white"/>
    <path d="M41.8798 66.2192H42.6566V71.8908H41.8824V66.2218L41.8798 66.2192Z" fill="white"/>
    <path d="M53.9188 66.216H54.6956C54.6956 67.8709 54.6956 69.5285 54.6956 71.1835H57.2521V71.8849H53.924V66.2134L53.9188 66.216Z" fill="white"/>
    <path d="M72.1864 66.2216C73.1035 66.2216 74.1012 66.0241 74.9429 66.5022C75.738 66.9334 76.1562 67.8531 76.151 68.7339C76.1744 69.7159 75.9536 70.8539 75.0806 71.4359C74.2311 72.0126 73.1581 71.8697 72.189 71.8879V66.2216H72.1864ZM72.9632 66.923C72.9632 68.3338 72.9632 69.7445 72.9632 71.1527C73.4932 71.202 74.0908 71.2462 74.5428 70.9059C75.1508 70.4642 75.3353 69.664 75.3404 68.9495C75.3482 68.3364 75.2339 67.6349 74.7247 67.2322C74.2285 66.8399 73.5582 66.8607 72.9632 66.923Z" fill="white"/>
    <path d="M79.1434 66.2163H80.006C80.4892 67.6011 80.9751 68.9884 81.4583 70.3732C81.926 68.9884 82.391 67.6011 82.8587 66.2163H83.6926C83.0119 68.1311 82.3261 70.0432 81.648 71.9554H81.2557C80.5542 70.0406 79.8501 68.1285 79.146 66.2163H79.1434Z" fill="white"/>
    <path d="M87.1219 71.8879V66.2163H87.8962V71.8879H87.1219Z" fill="white"/>
    <path d="M99.1923 66.2189C100.317 66.2189 101.44 66.2189 102.565 66.2189C102.565 66.4527 102.565 66.6866 102.565 66.9178H99.9743V68.4896H101.819V69.1573C101.203 69.1573 100.587 69.1573 99.9743 69.1573V71.1838H102.562C102.562 71.4176 102.562 71.6489 102.562 71.8853H99.1923C99.1923 69.9939 99.1923 68.1051 99.1923 66.2163V66.2189Z" fill="white"/>
  </g>
  <defs>
    <clipPath id="clip0_5688_4485">
      <rect width="103.883" height="72" fill="white"/>
    </clipPath>
  </defs>
</svg>